<svg width="147" height="46" viewBox="0 0 147 46" fill="none" xmlns="http://www.w3.org/2000/svg">
<rect width="144.711" height="37.055" transform="translate(1.87158)" fill="white"/>
<g filter="url(#filter0_d_1223_335)">
<path d="M16.9387 4.34348C18.0813 2.38104 20.9054 2.35022 22.0904 4.28725L26.1407 10.9075C26.7807 11.9537 28.3249 11.8764 28.8574 10.7716C29.1156 10.2357 29.6579 9.89511 30.2528 9.89511H30.8733C32.8112 9.89511 34.0336 11.9799 33.0872 13.671L30.0576 19.0845C28.9534 21.0575 26.1464 21.1464 24.9196 19.2471L22.1689 14.9884C20.9428 13.0901 18.1375 13.1776 17.0322 15.1487L9.40517 28.7498C8.89476 29.66 7.93258 30.2236 6.88905 30.2236C4.66374 30.2236 3.27641 27.8105 4.39604 25.8874L16.9387 4.34348Z" fill="#2563EA"/>
<path d="M17.9801 25.1753C17.517 24.3794 17.5136 23.3969 17.9712 22.5978C18.9532 20.8828 21.4203 20.8649 22.4271 22.5655L25.5777 27.8872C26.74 29.8505 29.5817 29.8491 30.7421 27.8847L39.2933 13.4096C40.4615 11.4321 43.3277 11.4471 44.4751 13.4367L51.392 25.4309C52.366 27.1199 51.147 29.23 49.1973 29.23C48.2757 29.23 47.4268 28.7296 46.9806 27.9232L44.4779 23.4005C43.3478 21.3582 40.4209 21.332 39.2545 23.3538L32.2158 35.5542C31.68 36.4829 30.6894 37.055 29.6172 37.055H26.6167C25.5484 37.055 24.5607 36.487 24.0235 35.5636L17.9801 25.1753Z" fill="#2563EA"/>
</g>
<path d="M66.9069 23.0273H64.9469L60.5089 16.3213V23.0273H58.5489V13.2413H60.5089L64.9469 19.9613V13.2413H66.9069V23.0273ZM72.2878 23.1533C71.5411 23.1533 70.8691 22.99 70.2718 22.6633C69.6745 22.3273 69.2031 21.856 68.8578 21.2493C68.5218 20.6427 68.3538 19.9427 68.3538 19.1493C68.3538 18.356 68.5265 17.656 68.8718 17.0493C69.2265 16.4427 69.7071 15.976 70.3138 15.6493C70.9205 15.3133 71.5971 15.1453 72.3438 15.1453C73.0905 15.1453 73.7671 15.3133 74.3738 15.6493C74.9805 15.976 75.4565 16.4427 75.8018 17.0493C76.1565 17.656 76.3338 18.356 76.3338 19.1493C76.3338 19.9427 76.1518 20.6427 75.7878 21.2493C75.4331 21.856 74.9478 22.3273 74.3318 22.6633C73.7251 22.99 73.0438 23.1533 72.2878 23.1533ZM72.2878 21.4453C72.6425 21.4453 72.9738 21.3613 73.2818 21.1933C73.5991 21.016 73.8511 20.7547 74.0378 20.4093C74.2245 20.064 74.3178 19.644 74.3178 19.1493C74.3178 18.412 74.1218 17.8473 73.7298 17.4553C73.3471 17.054 72.8758 16.8533 72.3158 16.8533C71.7558 16.8533 71.2845 17.054 70.9018 17.4553C70.5285 17.8473 70.3418 18.412 70.3418 19.1493C70.3418 19.8867 70.5238 20.456 70.8878 20.8573C71.2611 21.2493 71.7278 21.4453 72.2878 21.4453ZM81.0055 21.2213L82.9655 15.2713H85.0515L82.1815 23.0273H79.8015L76.9455 15.2713H79.0455L81.0055 21.2213ZM89.5964 23.1533C88.8497 23.1533 88.1777 22.99 87.5804 22.6633C86.9831 22.3273 86.5117 21.856 86.1664 21.2493C85.8304 20.6427 85.6624 19.9427 85.6624 19.1493C85.6624 18.356 85.8351 17.656 86.1804 17.0493C86.5351 16.4427 87.0157 15.976 87.6224 15.6493C88.2291 15.3133 88.9057 15.1453 89.6524 15.1453C90.3991 15.1453 91.0757 15.3133 91.6824 15.6493C92.2891 15.976 92.7651 16.4427 93.1104 17.0493C93.4651 17.656 93.6424 18.356 93.6424 19.1493C93.6424 19.9427 93.4604 20.6427 93.0964 21.2493C92.7417 21.856 92.2564 22.3273 91.6404 22.6633C91.0337 22.99 90.3524 23.1533 89.5964 23.1533ZM89.5964 21.4453C89.9511 21.4453 90.2824 21.3613 90.5904 21.1933C90.9077 21.016 91.1597 20.7547 91.3464 20.4093C91.5331 20.064 91.6264 19.644 91.6264 19.1493C91.6264 18.412 91.4304 17.8473 91.0384 17.4553C90.6557 17.054 90.1844 16.8533 89.6244 16.8533C89.0644 16.8533 88.5931 17.054 88.2104 17.4553C87.8371 17.8473 87.6504 18.412 87.6504 19.1493C87.6504 19.8867 87.8324 20.456 88.1964 20.8573C88.5697 21.2493 89.0364 21.4453 89.5964 21.4453ZM105.734 13.2553V23.0273H103.774V16.6713L101.156 23.0273H99.6721L97.0401 16.6713V23.0273H95.0801V13.2553H97.3061L100.414 20.5213L103.522 13.2553H105.734ZM114.882 18.9813C114.882 19.2613 114.863 19.5133 114.826 19.7373H109.156C109.203 20.2973 109.399 20.736 109.744 21.0533C110.089 21.3707 110.514 21.5293 111.018 21.5293C111.746 21.5293 112.264 21.2167 112.572 20.5913H114.686C114.462 21.338 114.033 21.954 113.398 22.4393C112.763 22.9153 111.984 23.1533 111.06 23.1533C110.313 23.1533 109.641 22.99 109.044 22.6633C108.456 22.3273 107.994 21.856 107.658 21.2493C107.331 20.6427 107.168 19.9427 107.168 19.1493C107.168 18.3467 107.331 17.642 107.658 17.0353C107.985 16.4287 108.442 15.962 109.03 15.6353C109.618 15.3087 110.295 15.1453 111.06 15.1453C111.797 15.1453 112.455 15.304 113.034 15.6213C113.622 15.9387 114.075 16.3913 114.392 16.9793C114.719 17.558 114.882 18.2253 114.882 18.9813ZM112.852 18.4213C112.843 17.9173 112.661 17.516 112.306 17.2173C111.951 16.9093 111.517 16.7553 111.004 16.7553C110.519 16.7553 110.108 16.9047 109.772 17.2033C109.445 17.4927 109.245 17.8987 109.17 18.4213H112.852ZM118.595 16.8813V20.6333C118.595 20.8947 118.655 21.086 118.777 21.2073C118.907 21.3193 119.122 21.3753 119.421 21.3753H120.331V23.0273H119.099C117.447 23.0273 116.621 22.2247 116.621 20.6193V16.8813H115.697V15.2713H116.621V13.3533H118.595V15.2713H120.331V16.8813H118.595ZM123.7 16.4753C123.952 16.0647 124.279 15.7427 124.68 15.5093C125.091 15.276 125.558 15.1593 126.08 15.1593V17.2173H125.562C124.946 17.2173 124.48 17.362 124.162 17.6513C123.854 17.9407 123.7 18.4447 123.7 19.1633V23.0273H121.74V15.2713H123.7V16.4753ZM128.394 14.3473C128.049 14.3473 127.76 14.24 127.526 14.0253C127.302 13.8013 127.19 13.526 127.19 13.1993C127.19 12.8727 127.302 12.602 127.526 12.3873C127.76 12.1633 128.049 12.0513 128.394 12.0513C128.74 12.0513 129.024 12.1633 129.248 12.3873C129.482 12.602 129.598 12.8727 129.598 13.1993C129.598 13.526 129.482 13.8013 129.248 14.0253C129.024 14.24 128.74 14.3473 128.394 14.3473ZM129.36 15.2713V23.0273H127.4V15.2713H129.36ZM130.793 19.1493C130.793 18.3467 130.956 17.6467 131.283 17.0493C131.61 16.4427 132.062 15.976 132.641 15.6493C133.22 15.3133 133.882 15.1453 134.629 15.1453C135.59 15.1453 136.384 15.388 137.009 15.8733C137.644 16.3493 138.068 17.0213 138.283 17.8893H136.169C136.057 17.5533 135.866 17.292 135.595 17.1053C135.334 16.9093 135.007 16.8113 134.615 16.8113C134.055 16.8113 133.612 17.0167 133.285 17.4273C132.958 17.8287 132.795 18.4027 132.795 19.1493C132.795 19.8867 132.958 20.4607 133.285 20.8713C133.612 21.2727 134.055 21.4733 134.615 21.4733C135.408 21.4733 135.926 21.1187 136.169 20.4093H138.283C138.068 21.2493 137.644 21.9167 137.009 22.4113C136.374 22.906 135.581 23.1533 134.629 23.1533C133.882 23.1533 133.22 22.99 132.641 22.6633C132.062 22.3273 131.61 21.8607 131.283 21.2633C130.956 20.6567 130.793 19.952 130.793 19.1493ZM142.687 23.1533C142.052 23.1533 141.483 23.0413 140.979 22.8173C140.475 22.584 140.073 22.2713 139.775 21.8793C139.485 21.4873 139.327 21.0533 139.299 20.5773H141.273C141.31 20.876 141.455 21.1233 141.707 21.3193C141.968 21.5153 142.29 21.6133 142.673 21.6133C143.046 21.6133 143.335 21.5387 143.541 21.3893C143.755 21.24 143.863 21.0487 143.863 20.8153C143.863 20.5633 143.732 20.3767 143.471 20.2553C143.219 20.1247 142.813 19.9847 142.253 19.8353C141.674 19.6953 141.198 19.5507 140.825 19.4013C140.461 19.252 140.143 19.0233 139.873 18.7153C139.611 18.4073 139.481 17.992 139.481 17.4693C139.481 17.04 139.602 16.648 139.845 16.2933C140.097 15.9387 140.451 15.6587 140.909 15.4533C141.375 15.248 141.921 15.1453 142.547 15.1453C143.471 15.1453 144.208 15.3787 144.759 15.8453C145.309 16.3027 145.613 16.9233 145.669 17.7073H143.793C143.765 17.3993 143.634 17.1567 143.401 16.9793C143.177 16.7927 142.873 16.6993 142.491 16.6993C142.136 16.6993 141.861 16.7647 141.665 16.8953C141.478 17.026 141.385 17.208 141.385 17.4413C141.385 17.7027 141.515 17.9033 141.777 18.0433C142.038 18.174 142.444 18.3093 142.995 18.4493C143.555 18.5893 144.017 18.734 144.381 18.8833C144.745 19.0327 145.057 19.266 145.319 19.5833C145.589 19.8913 145.729 20.302 145.739 20.8153C145.739 21.2633 145.613 21.6647 145.361 22.0193C145.118 22.374 144.763 22.654 144.297 22.8593C143.839 23.0553 143.303 23.1533 142.687 23.1533Z" fill="#38393A"/>
<defs>
<filter id="filter0_d_1223_335" x="0" y="2.85254" width="55.7345" height="42.2021" filterUnits="userSpaceOnUse" color-interpolation-filters="sRGB">
<feFlood flood-opacity="0" result="BackgroundImageFix"/>
<feColorMatrix in="SourceAlpha" type="matrix" values="0 0 0 0 0 0 0 0 0 0 0 0 0 0 0 0 0 0 127 0" result="hardAlpha"/>
<feOffset dy="4"/>
<feGaussianBlur stdDeviation="2"/>
<feComposite in2="hardAlpha" operator="out"/>
<feColorMatrix type="matrix" values="0 0 0 0 0 0 0 0 0 0 0 0 0 0 0 0 0 0 0.25 0"/>
<feBlend mode="normal" in2="BackgroundImageFix" result="effect1_dropShadow_1223_335"/>
<feBlend mode="normal" in="SourceGraphic" in2="effect1_dropShadow_1223_335" result="shape"/>
</filter>
</defs>
</svg>
